<svg width="18" height="19" viewBox="0 0 18 19" fill="none" xmlns="http://www.w3.org/2000/svg">
<rect y="0.5" width="18" height="18" rx="3" fill="#0C66E4"/>
<path fill-rule="evenodd" clip-rule="evenodd" d="M5.5605 8.4489C5.42213 8.30563 5.25661 8.19136 5.07361 8.11275C4.8906 8.03413 4.69377 7.99275 4.4946 7.99102C4.29543 7.98929 4.09791 8.02725 3.91357 8.10267C3.72922 8.17809 3.56175 8.28947 3.42091 8.43031C3.28007 8.57115 3.16869 8.73862 3.09327 8.92297C3.01785 9.10731 2.97989 9.30483 2.98162 9.504C2.98335 9.70317 3.02473 9.9 3.10335 10.083C3.18196 10.266 3.29623 10.4315 3.4395 10.5699L6.4395 13.5699C6.72079 13.8511 7.10225 14.0091 7.5 14.0091C7.89775 14.0091 8.27921 13.8511 8.5605 13.5699L14.5605 7.5699C14.7038 7.43153 14.818 7.26601 14.8967 7.08301C14.9753 6.9 15.0166 6.70317 15.0184 6.504C15.0201 6.30483 14.9822 6.10731 14.9067 5.92297C14.8313 5.73862 14.7199 5.57115 14.5791 5.43031C14.4383 5.28947 14.2708 5.17809 14.0864 5.10267C13.9021 5.02725 13.7046 4.98929 13.5054 4.99102C13.3062 4.99275 13.1094 5.03413 12.9264 5.11275C12.7434 5.19136 12.5779 5.30563 12.4395 5.4489L7.5 10.3884L5.5605 8.4489Z" fill="white"/>
</svg>
