<svg width="24" height="24" viewBox="0 0 24 24" fill="none" xmlns="http://www.w3.org/2000/svg">
<rect width="24" height="24" rx="2" fill="#0065FF"/>
<mask id="mask0_1378_9705" style="mask-type:luminance" maskUnits="userSpaceOnUse" x="0" y="0" width="24" height="24">
<rect width="24" height="24" rx="4" fill="white"/>
</mask>
<g mask="url(#mask0_1378_9705)">
<path fill-rule="evenodd" clip-rule="evenodd" d="M19.3664 9.73334H4.63307C4.32141 9.73334 4.06641 9.98834 4.06641 10.3V18.8C4.06641 19.735 4.83141 20.5 5.76641 20.5H18.2331C19.1681 20.5 19.9331 19.735 19.9331 18.8V10.3C19.9331 9.98834 19.6781 9.73334 19.3664 9.73334ZM9.16641 17.6667C9.16641 17.9783 8.91141 18.2333 8.59974 18.2333H7.46641C7.15474 18.2333 6.89974 17.9783 6.89974 17.6667V16.5333C6.89974 16.2217 7.15474 15.9667 7.46641 15.9667H8.59974C8.91141 15.9667 9.16641 16.2217 9.16641 16.5333V17.6667ZM8.59974 14.2667C8.91141 14.2667 9.16641 14.0117 9.16641 13.7V12.5667C9.16641 12.255 8.91141 12 8.59974 12H7.46641C7.15474 12 6.89974 12.255 6.89974 12.5667V13.7C6.89974 14.0117 7.15474 14.2667 7.46641 14.2667H8.59974ZM13.1331 17.6667C13.1331 17.9783 12.8781 18.2333 12.5664 18.2333H11.4331C11.1214 18.2333 10.8664 17.9783 10.8664 17.6667V16.5333C10.8664 16.2217 11.1214 15.9667 11.4331 15.9667H12.5664C12.8781 15.9667 13.1331 16.2217 13.1331 16.5333V17.6667ZM12.5664 14.2667C12.8781 14.2667 13.1331 14.0117 13.1331 13.7V12.5667C13.1331 12.255 12.8781 12 12.5664 12H11.4331C11.1214 12 10.8664 12.255 10.8664 12.5667V13.7C10.8664 14.0117 11.1214 14.2667 11.4331 14.2667H12.5664ZM17.0997 17.6667C17.0997 17.9783 16.8447 18.2333 16.5331 18.2333H15.3997C15.0881 18.2333 14.8331 17.9783 14.8331 17.6667V16.5333C14.8331 16.2217 15.0881 15.9667 15.3997 15.9667H16.5331C16.8447 15.9667 17.0997 16.2217 17.0997 16.5333V17.6667ZM16.5331 14.2667C16.8447 14.2667 17.0997 14.0117 17.0997 13.7V12.5667C17.0997 12.255 16.8447 12 16.5331 12H15.3997C15.0881 12 14.8331 12.255 14.8331 12.5667V13.7C14.8331 14.0117 15.0881 14.2667 15.3997 14.2667H16.5331Z" fill="white"/>
<path d="M18.2331 5.2H16.8164V4.63333C16.8164 4.01 16.3064 3.5 15.6831 3.5C15.0597 3.5 14.5497 4.01 14.5497 4.63333V5.2H9.44974V4.63333C9.44974 4.01 8.93974 3.5 8.31641 3.5C7.69307 3.5 7.18307 4.01 7.18307 4.63333V5.2H5.76641C4.83141 5.2 4.06641 5.965 4.06641 6.9V7.46667C4.06641 7.77833 4.32141 8.03333 4.63307 8.03333H19.3664C19.6781 8.03333 19.9331 7.77833 19.9331 7.46667V6.9C19.9331 5.965 19.1681 5.2 18.2331 5.2Z" fill="white"/>
</g>
</svg>
