<svg width="32" height="32" viewBox="0 0 32 32" fill="none" xmlns="http://www.w3.org/2000/svg">
<path d="M20 21.3333H25.3333V8.00001H6.66667V21.3333H16.444L20 24V21.3333ZM22.6667 24V26.6667C22.6667 26.9143 22.5977 27.157 22.4675 27.3677C22.3374 27.5783 22.1511 27.7485 21.9296 27.8592C21.7081 27.97 21.4602 28.0169 21.2136 27.9946C20.967 27.9724 20.7314 27.8819 20.5333 27.7333L15.556 24H6.66667C5.95942 24 5.28115 23.7191 4.78105 23.219C4.28095 22.7189 4 22.0406 4 21.3333V8.00001C4 7.29277 4.28095 6.61449 4.78105 6.11439C5.28115 5.61429 5.95942 5.33334 6.66667 5.33334H25.3333C26.0406 5.33334 26.7189 5.61429 27.219 6.11439C27.719 6.61449 28 7.29277 28 8.00001V21.3333C28 22.0406 27.719 22.7189 27.219 23.219C26.7189 23.7191 26.0406 24 25.3333 24H22.6667Z" fill="#44546F"/>
<path fill-rule="evenodd" clip-rule="evenodd" d="M9.33333 13.3333H22.6667V10.6667H9.33333V13.3333ZM9.33333 18.6667H17.3333V16H9.33333V18.6667Z" fill="#44546F"/>
</svg>
