<svg width="32" height="32" viewBox="0 0 32 32" fill="none" xmlns="http://www.w3.org/2000/svg">
<path fill-rule="evenodd" clip-rule="evenodd" d="M16 29.8462C23.732 29.8462 30 23.8192 30 16.3846C30 8.95001 23.732 2.92308 16 2.92308C8.26801 2.92308 2 8.95001 2 16.3846C2 23.8192 8.26801 29.8462 16 29.8462ZM32 16.3846C32 24.8813 24.8366 31.7692 16 31.7692C7.16344 31.7692 0 24.8813 0 16.3846C0 7.88793 7.16344 1 16 1C24.8366 1 32 7.88793 32 16.3846Z" fill="#0079C1"/>
<rect x="20.1646" y="11.1489" width="1.96923" height="13.2869" rx="0.984615" transform="rotate(45 20.1646 11.1489)" fill="#0079C1"/>
<rect x="10.7009" y="12.3818" width="1.97647" height="13.3367" rx="0.988236" transform="rotate(-45 10.7009 12.3818)" fill="#0079C1"/>
</svg>
