<svg width="24" height="24" viewBox="0 0 24 24" fill="none" xmlns="http://www.w3.org/2000/svg">
<path fill-rule="evenodd" clip-rule="evenodd" d="M8.29207 10.293C8.10526 10.4819 8.00049 10.7368 8.00049 11.0025C8.00049 11.2682 8.10526 11.5231 8.29207 11.712L11.2311 14.677C11.4491 14.892 11.7311 14.999 12.0101 14.999C12.2891 14.999 12.5661 14.892 12.7791 14.677L15.7091 11.722C15.8956 11.533 16.0002 11.2781 16.0002 11.0125C16.0002 10.7469 15.8956 10.492 15.7091 10.303C15.6172 10.2098 15.5078 10.1358 15.3871 10.0853C15.2664 10.0348 15.1369 10.0088 15.0061 10.0088C14.8752 10.0088 14.7457 10.0348 14.625 10.0853C14.5043 10.1358 14.3949 10.2098 14.3031 10.303L12.0051 12.62L9.69807 10.293C9.60603 10.2002 9.49652 10.1265 9.37586 10.0762C9.25521 10.0259 9.12578 10.0001 8.99507 10.0001C8.86435 10.0001 8.73493 10.0259 8.61427 10.0762C8.49361 10.1265 8.38411 10.2002 8.29207 10.293Z" fill="#0065FF"/>
</svg>
