<svg width="16" height="16" viewBox="0 0 16 16" fill="none" xmlns="http://www.w3.org/2000/svg">
<path fill-rule="evenodd" clip-rule="evenodd" d="M14 8C14 11.3137 11.3137 14 8 14C4.68629 14 2 11.3137 2 8C2 4.68629 4.68629 2 8 2C11.3137 2 14 4.68629 14 8ZM10.9997 10.2161C10.9997 10.0082 10.917 9.80893 10.77 9.662L9.108 8L10.77 6.338C10.8428 6.26525 10.9005 6.17888 10.9398 6.08383C10.9792 5.98877 10.9995 5.88689 10.9995 5.784C10.9995 5.68112 10.9792 5.57924 10.9398 5.48418C10.9005 5.38912 10.8428 5.30276 10.77 5.23C10.6973 5.15725 10.6109 5.09954 10.5158 5.06017C10.4208 5.02079 10.3189 5.00053 10.216 5.00053C10.1131 5.00053 10.0112 5.02079 9.91618 5.06017C9.82112 5.09954 9.73475 5.15725 9.662 5.23L8 6.892L6.33734 5.23C6.18866 5.09184 5.9922 5.01672 5.78928 5.02043C5.58635 5.02415 5.39278 5.10642 5.24926 5.24993C5.10575 5.39344 5.02348 5.58702 5.01976 5.78995C5.01605 5.99287 5.09117 6.18933 5.22934 6.338L6.89134 8L5.22934 9.662C5.08233 9.80903 4.99975 10.0084 4.99975 10.2163C4.99975 10.4242 5.08233 10.6236 5.22934 10.7707C5.30194 10.8437 5.38827 10.9016 5.48334 10.9411C5.57842 10.9807 5.68037 11.001 5.78334 11.001C5.8863 11.001 5.98825 10.9807 6.08333 10.9411C6.1784 10.9016 6.26473 10.8437 6.33734 10.7707L8 9.108L9.662 10.7707C9.80902 10.9176 10.0084 11.0001 10.2162 11C10.4241 11 10.6234 10.9174 10.7703 10.7703C10.9173 10.6233 10.9998 10.424 10.9997 10.2161Z" fill="#44546F"/>
</svg>
