<svg width="36" height="34" viewBox="0 0 36 34" fill="none" xmlns="http://www.w3.org/2000/svg">
<path fill-rule="evenodd" clip-rule="evenodd" d="M10.485 23.669C10.6707 23.8548 10.8913 24.0022 11.134 24.1028C11.3767 24.2033 11.6368 24.2551 11.8995 24.2551C12.1622 24.2551 12.4224 24.2033 12.6651 24.1028C12.9078 24.0022 13.1283 23.8548 13.314 23.669L10.485 20.839C10.2991 21.0247 10.1515 21.2453 10.0509 21.4881C9.95025 21.7309 9.89844 21.9912 9.89844 22.254C9.89844 22.5168 9.95025 22.7771 10.0509 23.0199C10.1515 23.2627 10.2991 23.4833 10.485 23.669ZM15.382 11.478L14.657 12.203C13.875 12.985 12.447 14.016 11.451 14.514L8.43402 16.023C7.93902 16.271 7.85002 16.797 8.24702 17.194L16.803 25.75C17.201 26.146 17.725 26.063 17.974 25.562L19.484 22.546C19.978 21.558 21.01 20.126 21.795 19.34L22.52 18.614C23.3432 17.7908 23.8567 16.7084 23.9733 15.5501C24.0899 14.3918 23.8026 13.2288 23.16 12.258C23.2676 12.1718 23.3563 12.0646 23.4209 11.9428C23.4854 11.8211 23.5243 11.6874 23.5353 11.55C23.5462 11.4127 23.5289 11.2745 23.4845 11.1441C23.44 11.0136 23.3694 10.8937 23.2768 10.7916C23.1843 10.6894 23.0719 10.6074 22.9464 10.5503C22.821 10.4933 22.6852 10.4626 22.5474 10.46C22.4096 10.4574 22.2728 10.483 22.1453 10.5353C22.0178 10.5876 21.9023 10.6654 21.806 10.764C21.783 10.789 21.76 10.813 21.74 10.839C20.9135 10.291 19.9437 9.99877 18.952 9.999C18.289 9.9982 17.6323 10.1284 17.0196 10.382C16.407 10.6356 15.8505 11.0077 15.382 11.477V11.478Z" fill="#44546F"/>
<rect x="8" width="28" height="16" rx="8" fill="#CA3521"/>
<path d="M17.9277 12.1934C16.4922 12.1934 15.4199 11.3613 15.1562 10.0312H16.2402C16.4629 10.793 17.1074 11.2559 17.9395 11.2559C19.3164 11.2559 20.0957 10.0371 20.1543 7.78711H20.0605C19.6445 8.60742 18.8184 9.08789 17.8105 9.08789C16.1992 9.08789 15.0332 7.89844 15.0332 6.25781C15.0332 4.55859 16.2637 3.3457 17.998 3.3457C19.8203 3.3457 21.1797 4.74609 21.1797 7.62305C21.1797 10.5293 19.9961 12.1934 17.9277 12.1934ZM17.998 8.17383C19.1172 8.17383 19.9199 7.37695 19.9199 6.25781C19.9199 5.12695 19.0938 4.27148 18.0098 4.27148C16.9258 4.27148 16.0996 5.11523 16.0996 6.22266C16.0996 7.37695 16.8789 8.17383 17.998 8.17383ZM26.3008 9.14062V11.6133H25.3516V9.14062H22.9961V8.19141H25.3516V5.71875H26.3008V8.19141H28.6562V9.14062H26.3008Z" fill="white"/>
</svg>
