<svg width="18" height="18" viewBox="0 0 18 18" fill="none" xmlns="http://www.w3.org/2000/svg">
<path fill-rule="evenodd" clip-rule="evenodd" d="M8.69958 13.7C8.03682 13.7094 7.37881 13.5869 6.76378 13.3398C6.14876 13.0926 5.58899 12.7257 5.117 12.2604C4.64501 11.795 4.27022 11.2405 4.0144 10.629C3.75859 10.0175 3.62685 9.36131 3.62685 8.69849C3.62685 8.03567 3.75859 7.37945 4.0144 6.76799C4.27022 6.15652 4.64501 5.60199 5.117 5.13663C5.58899 4.67127 6.14876 4.30435 6.76378 4.05721C7.37881 3.81006 8.03682 3.68762 8.69958 3.69699C10.0262 3.69699 11.2985 4.22399 12.2365 5.16204C13.1746 6.1001 13.7016 7.37238 13.7016 8.69899C13.7016 10.0256 13.1746 11.2979 12.2365 12.2359C11.2985 13.174 10.0262 13.701 8.69958 13.701V13.7ZM17.0676 10.584C16.675 10.4489 16.3343 10.1947 16.093 9.85683C15.8517 9.51894 15.7219 9.11419 15.7216 8.69899C15.7216 7.82299 16.2846 7.08599 17.0666 6.81399C17.182 6.77596 17.2787 6.69557 17.3371 6.58904C17.3956 6.48251 17.4115 6.35777 17.3816 6.23999C17.1845 5.54432 16.9038 4.8751 16.5456 4.24699C16.4865 4.14748 16.3933 4.07284 16.2833 4.03696C16.1733 4.00109 16.0539 4.00643 15.9476 4.05199C15.5376 4.21777 15.0849 4.24585 14.6576 4.13199C14.3221 4.04234 14.016 3.86638 13.7696 3.62163C13.5233 3.37688 13.3454 3.07188 13.2536 2.73699C13.1369 2.30793 13.1636 1.85249 13.3296 1.43999C13.3746 1.3336 13.3795 1.21451 13.3435 1.10476C13.3074 0.995012 13.2329 0.902022 13.1336 0.842992C12.5105 0.489892 11.8475 0.212588 11.1586 0.0169918C11.0409 -0.0132062 10.9162 0.00242535 10.8096 0.0607223C10.703 0.119019 10.6226 0.215627 10.5846 0.330992C10.4495 0.723602 10.1953 1.06429 9.85742 1.30557C9.51952 1.54684 9.11477 1.67668 8.69958 1.67699C8.28464 1.67669 7.88013 1.54696 7.54242 1.30587C7.20471 1.06477 6.95063 0.724336 6.81558 0.331992C6.77713 0.216644 6.69652 0.120086 6.58988 0.0616697C6.48325 0.00325338 6.35848 -0.0127054 6.24058 0.0169918C5.53258 0.216992 4.86158 0.501992 4.23658 0.858992C4.13918 0.916057 4.06558 1.00627 4.02923 1.11313C3.99287 1.21999 3.99619 1.33637 4.03858 1.44099C4.18784 1.8048 4.22666 2.20452 4.15018 2.59025C4.0737 2.97599 3.88532 3.33066 3.60853 3.61C3.33175 3.88934 2.97883 4.08098 2.59382 4.16101C2.2088 4.24104 1.80875 4.2059 1.44358 4.05999C1.33742 4.01557 1.21879 4.01093 1.10949 4.04694C1.00019 4.08294 0.907547 4.15717 0.848576 4.25599C0.491355 4.88456 0.211649 5.55411 0.0155756 6.24999C-0.0141163 6.36659 0.00106171 6.49008 0.0581035 6.59602C0.115145 6.70195 0.209891 6.7826 0.323576 6.82199C0.7106 6.96045 1.04541 7.21508 1.28222 7.55105C1.51903 7.88702 1.64628 8.28795 1.64658 8.69899C1.64658 9.56599 1.09458 10.298 0.322576 10.576C0.209183 10.6152 0.11462 10.6955 0.0575881 10.801C0.000555743 10.9066 -0.0147936 11.0297 0.0145757 11.146C0.190628 11.7669 0.433025 12.367 0.737576 12.936C0.797359 13.0417 0.895193 13.1206 1.01114 13.1566C1.12708 13.1927 1.25241 13.1831 1.36158 13.13C1.95658 12.857 2.70458 12.866 3.46558 13.368C3.58258 13.445 3.69058 13.553 3.76758 13.668C4.29458 14.468 4.27958 15.248 3.96558 15.856C3.90801 15.9623 3.89335 16.0866 3.92459 16.2034C3.95584 16.3202 4.03062 16.4206 4.13358 16.484C4.79552 16.8723 5.50468 17.1737 6.24358 17.381C6.36058 17.4113 6.48476 17.3958 6.59071 17.3377C6.69667 17.2795 6.77639 17.183 6.81358 17.068C6.94752 16.6739 7.20136 16.3316 7.53955 16.089C7.87775 15.8464 8.28336 15.7156 8.69958 15.715C9.57758 15.715 10.3176 16.282 10.5866 17.068C10.624 17.1829 10.7037 17.2792 10.8096 17.3373C10.9155 17.3955 11.0396 17.4111 11.1566 17.381C11.8858 17.1759 12.586 16.8792 13.2406 16.498C13.3441 16.4344 13.4193 16.3334 13.4504 16.2159C13.4815 16.0984 13.4661 15.9735 13.4076 15.867C13.0896 15.259 13.0706 14.474 13.5986 13.672C13.6756 13.556 13.7836 13.447 13.9006 13.37C14.6726 12.859 15.4276 12.857 16.0256 13.14C16.1347 13.1947 16.2606 13.2055 16.3774 13.1701C16.4942 13.1348 16.5931 13.056 16.6536 12.95C16.9605 12.3805 17.2046 11.7793 17.3816 11.157C17.4117 11.0395 17.3961 10.9149 17.3378 10.8085C17.2795 10.7021 17.1829 10.6218 17.0676 10.584Z" fill="#44546F"/>
</svg>
