<svg width="32" height="32" viewBox="0 0 32 32" fill="none" xmlns="http://www.w3.org/2000/svg">
<rect width="24" height="24" transform="translate(4 4)" fill="white" fill-opacity="0.01"/>
<path fill-rule="evenodd" clip-rule="evenodd" d="M15.701 20.7C15.0383 20.7094 14.3803 20.5869 13.7652 20.3398C13.1502 20.0926 12.5905 19.7257 12.1185 19.2604C11.6465 18.795 11.2717 18.2405 11.0159 17.629C10.7601 17.0175 10.6283 16.3613 10.6283 15.6985C10.6283 15.0357 10.7601 14.3795 11.0159 13.768C11.2717 13.1565 11.6465 12.602 12.1185 12.1366C12.5905 11.6713 13.1502 11.3044 13.7652 11.0572C14.3803 10.8101 15.0383 10.6876 15.701 10.697C17.0277 10.697 18.2999 11.224 19.238 12.162C20.176 13.1001 20.703 14.3724 20.703 15.699C20.703 17.0256 20.176 18.2979 19.238 19.2359C18.2999 20.174 17.0277 20.701 15.701 20.701V20.7ZM24.069 17.584C23.6764 17.4489 23.3357 17.1947 23.0945 16.8568C22.8532 16.5189 22.7233 16.1142 22.723 15.699C22.723 14.823 23.286 14.086 24.068 13.814C24.1835 13.776 24.2801 13.6956 24.3386 13.589C24.3971 13.4825 24.4129 13.3578 24.383 13.24C24.1859 12.5443 23.9052 11.8751 23.547 11.247C23.488 11.1475 23.3948 11.0728 23.2847 11.037C23.1747 11.0011 23.0554 11.0064 22.949 11.052C22.5391 11.2178 22.0863 11.2458 21.659 11.132C21.3236 11.0423 21.0174 10.8664 20.7711 10.6216C20.5248 10.3769 20.3468 10.0719 20.255 9.73699C20.1383 9.30793 20.165 8.85249 20.331 8.43999C20.376 8.3336 20.3809 8.21451 20.3449 8.10476C20.3089 7.99501 20.2343 7.90202 20.135 7.84299C19.512 7.48989 18.849 7.21259 18.16 7.01699C18.0424 6.98679 17.9176 7.00243 17.8111 7.06072C17.7045 7.11902 17.6241 7.21563 17.586 7.33099C17.451 7.7236 17.1968 8.06429 16.8589 8.30557C16.521 8.54684 16.1162 8.67668 15.701 8.67699C15.2861 8.67669 14.8816 8.54696 14.5439 8.30587C14.2062 8.06477 13.9521 7.72434 13.817 7.33199C13.7786 7.21664 13.698 7.12009 13.5913 7.06167C13.4847 7.00325 13.3599 6.98729 13.242 7.01699C12.534 7.21699 11.863 7.50199 11.238 7.85899C11.1406 7.91606 11.067 8.00627 11.0307 8.11313C10.9943 8.21999 10.9977 8.33637 11.04 8.44099C11.1893 8.8048 11.2281 9.20452 11.1516 9.59025C11.0752 9.97599 10.8868 10.3307 10.61 10.61C10.3332 10.8893 9.9803 11.081 9.59528 11.161C9.21027 11.241 8.81021 11.2059 8.44504 11.06C8.33888 11.0156 8.22026 11.0109 8.11096 11.0469C8.00166 11.0829 7.90901 11.1572 7.85004 11.256C7.49282 11.8846 7.21311 12.5541 7.01704 13.25C6.98735 13.3666 7.00253 13.4901 7.05957 13.596C7.11661 13.702 7.21136 13.7826 7.32504 13.822C7.71207 13.9604 8.04688 14.2151 8.28369 14.551C8.5205 14.887 8.64775 15.2879 8.64804 15.699C8.64804 16.566 8.09604 17.298 7.32404 17.576C7.21065 17.6152 7.11609 17.6955 7.05905 17.801C7.00202 17.9066 6.98667 18.0297 7.01604 18.146C7.19209 18.7669 7.43449 19.367 7.73904 19.936C7.79882 20.0417 7.89666 20.1206 8.0126 20.1566C8.12855 20.1927 8.25388 20.1831 8.36304 20.13C8.95804 19.857 9.70604 19.866 10.467 20.368C10.584 20.445 10.692 20.553 10.769 20.668C11.296 21.468 11.281 22.248 10.967 22.856C10.9095 22.9623 10.8948 23.0866 10.9261 23.2034C10.9573 23.3202 11.0321 23.4206 11.135 23.484C11.797 23.8723 12.5061 24.1737 13.245 24.381C13.362 24.4113 13.4862 24.3958 13.5922 24.3377C13.6981 24.2795 13.7779 24.183 13.815 24.068C13.949 23.6739 14.2028 23.3316 14.541 23.089C14.8792 22.8464 15.2848 22.7156 15.701 22.715C16.579 22.715 17.319 23.282 17.588 24.068C17.6254 24.1829 17.7052 24.2792 17.8111 24.3373C17.917 24.3955 18.041 24.4111 18.158 24.381C18.8872 24.1759 19.5875 23.8792 20.242 23.498C20.3456 23.4344 20.4207 23.3334 20.4518 23.2159C20.4829 23.0984 20.4676 22.9735 20.409 22.867C20.091 22.259 20.072 21.474 20.6 20.672C20.677 20.556 20.785 20.447 20.902 20.37C21.674 19.859 22.429 19.857 23.027 20.14C23.1362 20.1947 23.2621 20.2055 23.3789 20.1701C23.4957 20.1348 23.5945 20.056 23.655 19.95C23.962 19.3805 24.2061 18.7793 24.383 18.157C24.4132 18.0395 24.3975 17.9149 24.3392 17.8085C24.2809 17.7021 24.1843 17.6218 24.069 17.584Z" fill="#44546F"/>
</svg>
