<svg width="16" height="16" viewBox="0 0 16 16" fill="none" xmlns="http://www.w3.org/2000/svg">
  <path
    d="M3.33398 4.33334H12.0007C12.5311 4.33334 13.0398 4.54406 13.4149 4.91913C13.7899 5.2942 14.0007 5.80291 14.0007 6.33334V12.3333C14.0007 12.8638 13.7899 13.3725 13.4149 13.7476C13.0398 14.1226 12.5311 14.3333 12.0007 14.3333H3.33398C2.80355 14.3333 2.29484 14.1226 1.91977 13.7476C1.5447 13.3725 1.33398 12.8638 1.33398 12.3333V6.33334C1.33398 5.80291 1.5447 5.2942 1.91977 4.91913C2.29484 4.54406 2.80355 4.33334 3.33398 4.33334ZM3.33398 5.00001C3.00865 5.00001 2.70998 5.11668 2.47865 5.31068L7.66732 8.68001L12.856 5.31068C12.6164 5.10962 12.3135 4.9996 12.0007 5.00001H3.33398ZM7.66732 9.47468L2.08998 5.85334C2.03084 6.00646 2.00055 6.1692 2.00065 6.33334V12.3333C2.00065 12.687 2.14113 13.0261 2.39118 13.2762C2.64122 13.5262 2.98036 13.6667 3.33398 13.6667H12.0007C12.3543 13.6667 12.6934 13.5262 12.9435 13.2762C13.1935 13.0261 13.334 12.687 13.334 12.3333V6.33334C13.334 6.16401 13.3027 6.00201 13.2447 5.85334L7.66732 9.47401V9.47468Z"
    fill="black"/>
</svg>
