<svg width="33" height="33" viewBox="0 0 33 33" fill="none" xmlns="http://www.w3.org/2000/svg">
<path d="M5.3764 20.9664L10.8787 17.4415L11.2513 17.6707L5.74895 21.1957L5.3764 20.9664ZM5.29043 23.9468V22.0554L4.91787 21.8261V23.7176L5.29043 23.9468ZM6.26479 24.7779C6.26479 25.1504 5.86358 25.3797 5.54835 25.2078L4.20143 24.434C4.05814 24.348 3.94351 24.1761 3.94351 24.0041V21.2816L2.19537 20.2786V26.9559L7.98427 30.3089V23.6029L6.23614 22.5999C6.26479 22.5999 6.26479 24.7779 6.26479 24.7779ZM14.0597 27.3571L14.7762 26.9272V20.2499C13.8878 20.7658 9.76106 23.1444 8.98729 23.6029V30.3089C10.0476 29.6784 13.0281 27.9589 14.0597 27.3571ZM9.93301 16.897L8.50011 16.0659L2.68256 19.4189L4.43069 20.4219L9.93301 16.897ZM13.6012 19.0177L12.197 18.2152L6.69466 21.7402C6.95258 21.8834 8.18487 22.5999 8.50011 22.7718L14.289 19.4189L13.6012 19.0177ZM29.621 4.40213H25.5516V5.20455H28.4747C28.8759 5.20455 29.2198 5.54845 29.2198 5.94966V27.5291C29.2198 27.9303 28.9045 28.2742 28.4747 28.2742H14.4323L13.1427 29.0193L13.0281 29.0766H29.621C29.7929 29.0766 29.9362 28.9333 29.9362 28.7327V4.74603C29.9076 4.57408 29.7929 4.40213 29.621 4.40213ZM15.7506 27.2998C15.7506 27.1565 15.7506 19.5622 15.7506 19.4189C15.7506 19.2469 15.6646 19.075 15.5213 18.989L14.3463 18.3012V6.17892H28.2741V27.2998H15.7506ZM26.268 17.0689H20.4505C19.82 17.0689 19.82 18.0146 20.4505 18.0433H26.268C26.8985 18.0146 26.8985 17.0689 26.268 17.0689ZM20.4218 16.4098H24.5772C25.2077 16.4098 25.2077 15.4641 24.5772 15.4354H20.4218C19.7913 15.4641 19.7913 16.4098 20.4218 16.4098ZM26.268 11.3373H20.4505C19.82 11.3373 19.82 12.2831 20.4505 12.3117H26.268C26.8985 12.2831 26.8985 11.3373 26.268 11.3373ZM24.5772 9.70384H20.4218C20.1639 9.70384 19.9346 9.93311 19.9346 10.191C19.9346 10.4489 20.1639 10.6782 20.4218 10.6782H24.5772C24.8351 10.6782 25.0644 10.4489 25.0644 10.191C25.0644 9.93311 24.8351 9.70384 24.5772 9.70384ZM15.3207 10.1337C15.3207 10.1624 15.3207 10.1624 15.3207 10.191V11.8245C15.3207 12.3977 15.7792 12.8849 16.381 12.8849H18.0145C18.5877 12.8849 19.0749 12.4263 19.0749 11.8245V10.191C19.0749 10.1624 19.0749 10.1337 19.0749 10.1051L20.5078 8.67216C20.9376 8.21363 20.2785 7.5545 19.82 7.98437L18.5304 9.27398C18.3871 9.188 18.2151 9.13069 18.0145 9.13069H16.3524C16.1518 9.13069 15.9512 9.188 15.7792 9.30263C15.6073 9.24532 15.4067 9.27398 15.2634 9.41726C15.0628 9.61787 15.0914 9.96176 15.3207 10.1337ZM16.3524 18.6164H17.9859C18.559 18.6164 19.0462 18.1579 19.0462 17.5561V15.9226C19.0462 15.8939 19.0462 15.8366 19.0462 15.808L20.4791 14.3751C20.909 13.9166 20.2498 13.2574 19.7913 13.6873L18.4731 15.0056C18.3298 14.9196 18.1578 14.8909 17.9859 14.8909H16.3524C16.1518 14.8909 15.9798 14.9482 15.8079 15.0342C15.292 14.7763 14.8622 15.4927 15.292 15.8366C15.292 15.8653 15.292 15.8939 15.292 15.9226V17.5561C15.3207 18.1579 15.7792 18.6164 16.3524 18.6164ZM13.3433 5.97832C13.3433 5.54845 13.6872 5.23321 14.0884 5.23321H17.0115V4.40213H12.9421C12.7701 4.40213 12.6555 4.54542 12.6555 4.74603V17.3555L13.372 17.7567V5.97832H13.3433ZM24.6058 5.20455V3.77166C24.6058 3.22716 24.1473 2.76863 23.6028 2.76863H22.6571C22.4565 2.76863 22.2846 2.654 22.1986 2.4534C21.912 1.59366 20.6511 1.59366 20.3645 2.4534C20.3072 2.654 20.1066 2.76863 19.906 2.76863H18.9602C18.4157 2.76863 17.9572 3.22716 17.9572 3.77166C17.9572 3.743 17.9572 5.1759 17.9572 5.20455H24.6058ZM16.3524 11.9105H17.9859C18.0432 11.9105 18.0718 11.8818 18.0718 11.8245V11.0508L17.4987 11.6239C17.4127 11.7099 17.2981 11.7672 17.1548 11.7672C16.8682 11.7959 16.5243 11.3087 16.2664 11.0794V11.8245C16.2664 11.8818 16.3237 11.9105 16.3524 11.9105ZM17.6993 10.1051H16.639L17.1548 10.6209L17.6993 10.1051ZM17.642 15.8366H16.6676L17.1548 16.3238L17.642 15.8366ZM18.0145 17.6421C18.0718 17.6421 18.1005 17.6134 18.1005 17.5561V16.7537L17.5273 17.3268C17.4414 17.4128 17.3267 17.4701 17.1835 17.4701C16.8969 17.4988 16.553 17.0116 16.2951 16.7823V17.5561C16.2951 17.6134 16.3237 17.6421 16.381 17.6421H18.0145Z" fill="#B58200"/>
<rect x="0.25" y="0.25" width="32.5" height="32.5" stroke="#B58200" stroke-width="0.5"/>
</svg>
