<svg width="80" height="80" viewBox="0 0 80 80" fill="none" xmlns="http://www.w3.org/2000/svg">
<path d="M71.3 19.2009H44.7184V8.71298C44.7184 8.27496 44.3608 7.9209 43.9184 7.9209H36.28C35.8376 7.9209 35.48 8.27496 35.48 8.71298V19.2009H8.90001C8.45761 19.2009 8.10001 19.555 8.10001 19.993V70.4952C8.10001 70.9332 8.45761 71.2872 8.90001 71.2872H71.3C71.7424 71.2872 72.1 70.9332 72.1 70.4952V19.993C72.1 19.555 71.7424 19.2009 71.3 19.2009ZM36.2808 28.4421H43.9192C44.3616 28.4421 44.7192 28.088 44.7192 27.65V25.4053H45.6912C47.0144 25.4053 48.0912 26.4714 48.0912 27.7815C48.0912 29.0916 47.0144 30.1577 45.6912 30.1577H34.5088C33.1856 30.1577 32.1088 29.0916 32.1088 27.7815C32.1088 26.4714 33.1856 25.4053 34.5088 25.4053H35.4808V27.65C35.4808 28.088 35.8384 28.4421 36.2808 28.4421ZM37.0808 9.50506H43.1192V26.8579H37.0808V9.50506ZM70.5 69.7031H9.70001V20.7851H35.4808V23.8211H34.5088C32.3032 23.8211 30.5088 25.5977 30.5088 27.7815C30.5088 29.9653 32.3032 31.7419 34.5088 31.7419H45.6912C47.8968 31.7419 49.6912 29.9653 49.6912 27.7815C49.6912 25.5977 47.8968 23.8211 45.6912 23.8211H44.7192V20.7851H70.5008L70.5 69.7031Z" fill="#0C66E4"/>
<path d="M40.1004 21.8086C39.0252 21.8086 38.15 22.6751 38.15 23.7397C38.15 24.8042 39.0252 25.6708 40.1004 25.6708C41.1756 25.6708 42.0508 24.8042 42.0508 23.7397C42.0508 22.6751 41.1756 21.8086 40.1004 21.8086ZM40.1004 24.0858C39.9076 24.0858 39.75 23.9306 39.75 23.7389C39.75 23.5472 39.9068 23.392 40.1004 23.392C40.294 23.392 40.4508 23.5472 40.4508 23.7389C40.4508 23.9306 40.2932 24.0858 40.1004 24.0858Z" fill="#0C66E4"/>
<path d="M42.15 37.0294C42.15 37.4674 42.5076 37.8215 42.95 37.8215H65.3004C65.7428 37.8215 66.1004 37.4674 66.1004 37.0294C66.1004 36.5914 65.7428 36.2373 65.3004 36.2373H42.95C42.5076 36.2373 42.15 36.5914 42.15 37.0294Z" fill="#0C66E4"/>
<path d="M65.2996 44.9336H42.95C42.5076 44.9336 42.15 45.2877 42.15 45.7257C42.15 46.1637 42.5076 46.5178 42.95 46.5178H65.3004C65.7428 46.5178 66.1004 46.1637 66.1004 45.7257C66.1004 45.2877 65.742 44.9336 65.2996 44.9336Z" fill="#0C66E4"/>
<path d="M65.2996 53.6289H42.95C42.5076 53.6289 42.15 53.983 42.15 54.421C42.15 54.859 42.5076 55.2131 42.95 55.2131H65.3004C65.7428 55.2131 66.1004 54.859 66.1004 54.421C66.1004 53.983 65.742 53.6289 65.2996 53.6289Z" fill="#0C66E4"/>
<path d="M65.2996 62.3252H42.95C42.5076 62.3252 42.15 62.6793 42.15 63.1173C42.15 63.5553 42.5076 63.9094 42.95 63.9094H65.3004C65.7428 63.9094 66.1004 63.5553 66.1004 63.1173C66.1004 62.6793 65.742 62.3252 65.2996 62.3252Z" fill="#0C66E4"/>
<path d="M36.7 36.2373H15.7C15.2576 36.2373 14.9 36.5914 14.9 37.0294V63.1165C14.9 63.5545 15.2576 63.9086 15.7 63.9086H36.7C37.1424 63.9086 37.5 63.5545 37.5 63.1165V37.0294C37.5 36.5914 37.1424 36.2373 36.7 36.2373ZM35.9 62.3244H16.5V37.8215H35.9V62.3244Z" fill="#0C66E4"/>
<path d="M29.339 49.8422C30.2996 49.0245 30.9229 47.8183 30.9229 46.4552C30.9229 43.9987 28.9395 42 26.5009 42C24.0622 42 22.0771 43.9987 22.0771 46.4552C22.0771 47.8183 22.7012 49.0245 23.6619 49.8422C21.4978 50.907 20 53.1398 20 55.7238V57.1329C20 57.6115 20.3856 58 20.8608 58H32.1392C32.6152 58 33 57.6115 33 57.1329V55.7238C33 53.1398 31.503 50.907 29.339 49.8422ZM26.5009 43.7342C27.9901 43.7342 29.2012 44.9551 29.2012 46.4552C29.2012 47.9553 27.9901 49.1762 26.5009 49.1762C25.0108 49.1762 23.7988 47.9553 23.7988 46.4552C23.7988 44.9551 25.0108 43.7342 26.5009 43.7342ZM31.2784 56.2658H21.7216V55.7238C21.7216 53.0696 23.8659 50.9105 26.5009 50.9105C29.1349 50.9105 31.2784 53.0696 31.2784 55.7238V56.2658Z" fill="#0C66E4"/>
</svg>
