<svg width="53" height="59" viewBox="0 0 53 59" fill="none" xmlns="http://www.w3.org/2000/svg">
<path d="M29.3729 42.9527L30.1251 40.5103C30.1886 40.3027 30.2027 40.0831 30.1663 39.8691C30.1298 39.6551 30.0439 39.4525 29.9153 39.2776C29.7874 39.1048 29.6209 38.9642 29.429 38.8672C29.2372 38.7701 29.0253 38.7193 28.8102 38.7188H24.1883C23.9733 38.7193 23.7614 38.7701 23.5695 38.8672C23.3776 38.9642 23.2111 39.1048 23.0832 39.2776C22.9546 39.4526 22.8687 39.6551 22.8322 39.8692C22.7958 40.0833 22.8099 40.3029 22.8734 40.5105L23.6258 42.9528C23.7312 43.2932 23.9334 43.5956 24.2077 43.8231L24.107 44.926L25.6205 48.6258L26.0201 44.25H26.9784L27.378 48.6258L28.8915 44.926L28.7908 43.8232C29.0652 43.5956 29.2674 43.2932 29.3729 42.9527ZM27.6118 42.4063L25.3879 42.4099L24.8187 40.5625H28.1796L27.6118 42.4063Z" fill="#0C66E4"/>
<path d="M52.3051 57.9614L50.3585 42.6121C50.214 41.6729 49.7687 40.8058 49.0896 40.1411C48.4105 39.4764 47.5341 39.0498 46.592 38.9255L35.084 36.8499C34.9239 36.8299 34.7732 36.7631 34.6508 36.6579C34.5284 36.5527 34.4398 36.4137 34.396 36.2584L34.3832 36.21C33.8694 36.5679 33.3328 36.8919 32.7768 37.18C32.9695 37.5883 33.2662 37.9387 33.6371 38.1962L26.5 55.6425L19.3635 38.1976C19.7364 37.9417 20.0345 37.5912 20.2272 37.182C19.67 36.8935 19.1323 36.5689 18.6174 36.2104L18.5956 36.2926C18.5476 36.4408 18.458 36.5721 18.3376 36.6708C18.2171 36.7696 18.0709 36.8318 17.9162 36.8499L6.43571 38.921C5.48857 39.0416 4.60632 39.4669 3.92195 40.1326C3.23758 40.7984 2.78819 41.6686 2.64153 42.6121L0.694926 57.9614C0.679549 58.0815 0.688008 58.2035 0.71982 58.3204C0.751632 58.4373 0.806173 58.5468 0.880324 58.6426C0.954474 58.7384 1.04678 58.8186 1.15196 58.8787C1.25715 58.9388 1.37314 58.9776 1.49332 58.9928C1.6135 59.0081 1.73551 58.9994 1.85236 58.9675C1.96921 58.9355 2.07861 58.8809 2.17432 58.8066C2.27003 58.7323 2.35016 58.6399 2.41013 58.5347C2.4701 58.4294 2.50873 58.3134 2.52382 58.1932L4.47041 42.8439C4.56838 42.2949 4.84235 41.7927 5.25094 41.4131C5.65953 41.0336 6.18055 40.7973 6.73528 40.74L17.6092 38.7788L25.6468 58.4264C25.7161 58.5958 25.8342 58.7407 25.9862 58.8427C26.1381 58.9447 26.317 58.9992 26.5 58.9992C26.683 58.9992 26.8619 58.9447 27.0138 58.8427C27.1658 58.7407 27.2839 58.5958 27.3532 58.4264L35.3908 38.7788L46.2924 40.7445C46.8422 40.8054 47.3575 41.0429 47.7608 41.4214C48.1642 41.8 48.4339 42.2991 48.5296 42.8439L50.4762 58.1932C50.4913 58.3134 50.5299 58.4294 50.5899 58.5347C50.6498 58.6399 50.73 58.7323 50.8257 58.8066C50.9214 58.8809 51.0308 58.9355 51.1476 58.9675C51.2645 58.9995 51.3865 59.0081 51.5067 58.9928C51.6269 58.9776 51.7429 58.9388 51.848 58.8787C51.9532 58.8186 52.0455 58.7384 52.1197 58.6426C52.1938 58.5468 52.2484 58.4373 52.2802 58.3204C52.312 58.2036 52.3204 58.0815 52.3051 57.9614Z" fill="#0C66E4"/>
<path d="M40.7891 19.03V12.8359L38.94 13.4759L38.9352 19.0586C30.8848 21.9084 22.0985 21.8983 14.0547 19.03V13.4742L12.2109 12.836V19.03C12.2097 19.4157 12.3276 19.7924 12.5487 20.1084C12.7698 20.4244 13.0831 20.6644 13.4459 20.7955C13.5273 20.8243 13.6099 20.8483 13.6914 20.8767C13.6276 21.444 13.595 22.0145 13.5938 22.5854C13.5938 30.4644 19.3834 36.8746 26.5 36.8746C33.6166 36.8746 39.4063 30.4644 39.4063 22.5854C39.405 22.0145 39.3724 21.444 39.3085 20.8766C39.39 20.8483 39.4726 20.8243 39.5539 20.7955C39.9167 20.6645 40.2301 20.4245 40.4512 20.1085C40.6724 19.7924 40.7904 19.4157 40.7891 19.03ZM26.5 35.0309C20.4 35.0309 15.4375 29.4478 15.4375 22.5854C15.4375 22.2019 15.4568 21.8237 15.4879 21.4492C19.0642 22.5001 22.7725 23.0344 26.5 23.0358C30.2276 23.0344 33.9358 22.5001 37.5122 21.4492C37.5432 21.8237 37.5625 22.2019 37.5625 22.5854C37.5625 29.4478 32.6 35.0309 26.5 35.0309Z" fill="#0C66E4"/>
<path d="M5.91716 8.70635L25.6036 15.5203C26.1845 15.7202 26.8155 15.7202 27.3965 15.5203L45.8594 9.12982V17.1941C45.2467 17.3705 44.7186 17.7625 44.3724 18.2979C44.159 18.6351 44.0363 19.0216 44.0162 19.42C43.996 19.8185 44.079 20.2154 44.2571 20.5724L45.725 23.7736C45.8224 23.9704 45.9728 24.136 46.1593 24.2518C46.3458 24.3676 46.5609 24.429 46.7805 24.429C47 24.429 47.2152 24.3676 47.4017 24.2518C47.5882 24.136 47.7386 23.9704 47.8359 23.7736L47.8433 23.7583L49.2982 20.5884C49.4793 20.2299 49.5646 19.8305 49.5456 19.4292C49.5266 19.028 49.4041 18.6384 49.1899 18.2986C48.8437 17.7633 48.3157 17.3711 47.7031 17.1945V7.8351C47.7003 7.64779 47.6414 7.46562 47.5341 7.31207C47.4267 7.15852 47.2759 7.04061 47.101 6.97354C47.0944 6.97109 47.0895 6.96617 47.0828 6.96386L27.3964 0.149897C26.8155 -0.0499657 26.1845 -0.0499657 25.6036 0.149897L5.91716 6.96384C5.73604 7.02657 5.57896 7.14419 5.46779 7.30034C5.35662 7.45649 5.29687 7.64341 5.29688 7.83509C5.29687 8.02677 5.35662 8.21369 5.46779 8.36984C5.57896 8.52598 5.73604 8.64362 5.91716 8.70635ZM46.7806 18.8977C46.9426 18.8857 47.105 18.9143 47.2532 18.9809C47.4013 19.0476 47.5304 19.1502 47.6289 19.2794C47.677 19.3583 47.7026 19.4489 47.7028 19.5414C47.7029 19.6338 47.6777 19.7245 47.6298 19.8036L46.7808 21.6532L45.9256 19.7881C45.8805 19.7104 45.8575 19.622 45.8589 19.5322C45.8603 19.4424 45.8862 19.3547 45.9337 19.2785C46.032 19.1495 46.1609 19.0471 46.3088 18.9806C46.4567 18.9141 46.6189 18.8856 46.7806 18.8977ZM26.2067 1.89238C26.3967 1.82666 26.6033 1.82666 26.7933 1.89238L43.9627 7.8351L26.7933 13.7778C26.6033 13.8435 26.3967 13.8435 26.2067 13.7778L9.03727 7.83511L26.2067 1.89238Z" fill="#0C66E4"/>
</svg>
