<svg width="33" height="32" viewBox="0 0 33 32" fill="none" xmlns="http://www.w3.org/2000/svg">
<g clip-path="url(#clip0_1210_53418)">
<path fill-rule="evenodd" clip-rule="evenodd" d="M19.4952 14.995C19.6826 15.1825 19.788 15.4368 19.788 15.702C19.788 15.9672 19.6826 16.2215 19.4952 16.409L14.9022 21.002C14.7159 21.1846 14.4651 21.2862 14.2042 21.2849C13.9434 21.2836 13.6936 21.1794 13.5092 20.995C13.3248 20.8105 13.2206 20.5608 13.2193 20.2999C13.2179 20.0391 13.3196 19.7883 13.5022 19.602L17.4022 15.702L13.5022 11.802C13.3196 11.6157 13.2179 11.3649 13.2193 11.1041C13.2206 10.8433 13.3248 10.5935 13.5092 10.409C13.6936 10.2246 13.9434 10.1204 14.2042 10.1191C14.4651 10.1178 14.7159 10.2194 14.9022 10.402L19.4952 14.995V14.995Z" fill="#8993A5"/>
</g>
<defs>
<clipPath id="clip0_1210_53418">
<rect width="32" height="32" fill="white" transform="translate(0.5)"/>
</clipPath>
</defs>
</svg>
