<svg width="24" height="24" viewBox="0 0 24 24" fill="none" xmlns="http://www.w3.org/2000/svg">
<path fill-rule="evenodd" clip-rule="evenodd" d="M6.48306 17.669C6.66879 17.8548 6.88931 18.0022 7.13201 18.1028C7.37471 18.2033 7.63485 18.2551 7.89756 18.2551C8.16027 18.2551 8.42041 18.2033 8.66312 18.1028C8.90582 18.0022 9.12634 17.8548 9.31206 17.669L6.48306 14.839C6.29711 15.0247 6.14959 15.2453 6.04894 15.4881C5.94829 15.7309 5.89649 15.9912 5.89649 16.254C5.89649 16.5168 5.94829 16.7771 6.04894 17.0199C6.14959 17.2627 6.29711 17.4833 6.48306 17.669ZM11.3801 5.478L10.6551 6.203C9.87306 6.985 8.44506 8.016 7.44906 8.514L4.43206 10.023C3.93706 10.271 3.84806 10.797 4.24506 11.194L12.8011 19.75C13.1991 20.146 13.7231 20.063 13.9721 19.562L15.4821 16.546C15.9761 15.558 17.0081 14.126 17.7931 13.34L18.5181 12.614C19.3413 11.7908 19.8547 10.7084 19.9713 9.55011C20.088 8.39179 19.8007 7.22876 19.1581 6.258C19.2656 6.17183 19.3544 6.06457 19.4189 5.94281C19.4834 5.82106 19.5224 5.68738 19.5333 5.55002C19.5443 5.41265 19.527 5.2745 19.4825 5.14406C19.4381 5.01363 19.3674 4.89366 19.2749 4.79156C19.1824 4.68945 19.0699 4.60736 18.9444 4.55034C18.819 4.49331 18.6832 4.46257 18.5454 4.45999C18.4077 4.4574 18.2708 4.48304 18.1433 4.53533C18.0158 4.58761 17.9004 4.66543 17.8041 4.764C17.7811 4.789 17.7581 4.813 17.7381 4.839C16.9115 4.29096 15.9418 3.99877 14.9501 3.999C14.287 3.9982 13.6303 4.12836 13.0177 4.38199C12.405 4.63563 11.8485 5.00775 11.3801 5.477V5.478Z" fill="#44546F"/>
</svg>
