<svg width="32" height="32" viewBox="0 0 32 32" fill="none" xmlns="http://www.w3.org/2000/svg">
<path fill-rule="evenodd" clip-rule="evenodd" d="M10.485 21.669C10.6707 21.8548 10.8913 22.0022 11.134 22.1028C11.3767 22.2033 11.6368 22.2551 11.8995 22.2551C12.1622 22.2551 12.4224 22.2033 12.6651 22.1028C12.9078 22.0022 13.1283 21.8548 13.314 21.669L10.485 18.839C10.2991 19.0248 10.1515 19.2453 10.0509 19.4881C9.95025 19.7309 9.89844 19.9912 9.89844 20.254C9.89844 20.5169 9.95025 20.7771 10.0509 21.0199C10.1515 21.2627 10.2991 21.4833 10.485 21.669ZM15.382 9.47803L14.657 10.203C13.875 10.985 12.447 12.016 11.451 12.514L8.43402 14.023C7.93902 14.271 7.85002 14.797 8.24702 15.194L16.803 23.75C17.201 24.146 17.725 24.063 17.974 23.562L19.484 20.546C19.978 19.558 21.01 18.126 21.795 17.34L22.52 16.614C23.3432 15.7909 23.8567 14.7085 23.9733 13.5501C24.0899 12.3918 23.8026 11.2288 23.16 10.258C23.2676 10.1719 23.3563 10.0646 23.4209 9.94284C23.4854 9.82109 23.5243 9.68741 23.5353 9.55005C23.5462 9.41268 23.5289 9.27453 23.4845 9.14409C23.44 9.01366 23.3694 8.89369 23.2768 8.79159C23.1843 8.68948 23.0719 8.60739 22.9464 8.55037C22.821 8.49334 22.6852 8.4626 22.5474 8.46002C22.4096 8.45743 22.2728 8.48307 22.1453 8.53536C22.0178 8.58764 21.9023 8.66546 21.806 8.76403C21.783 8.78903 21.76 8.81303 21.74 8.83903C20.9135 8.29099 19.9437 7.9988 18.952 7.99903C18.289 7.99823 17.6323 8.12839 17.0196 8.38202C16.407 8.63566 15.8505 9.00778 15.382 9.47703V9.47803Z" fill="white"/>
</svg>
