<svg width="24" height="24" viewBox="0 0 24 24" fill="none" xmlns="http://www.w3.org/2000/svg">
  <path
    d="M18.4921 9.34645C18.4921 7.66326 17.793 6.04902 16.5487 4.85883C15.3045 3.66864 13.6168 3 11.8571 3C10.0975 3 8.40984 3.66864 7.16555 4.85883C5.92126 6.04902 5.22222 7.66326 5.22222 9.34645C5.22222 14.6047 3.09273 17.1957 1.85838 18.2558C1.65834 18.4276 1.79337 18.8661 2.05706 18.8661H7.78669C7.90365 18.8661 8.00554 18.9461 8.04059 19.0577C8.25437 19.7384 9.16705 22 11.8571 22C14.5472 22 15.4599 19.7384 15.6737 19.0577C15.7088 18.9461 15.8106 18.8661 15.9276 18.8661H21.6572C21.9209 18.8661 22.0559 18.4276 21.8559 18.2558C20.6216 17.1957 18.4921 14.6047 18.4921 9.34645Z"
    stroke="#6E7191" stroke-width="2" stroke-linecap="round" stroke-linejoin="round"/>

</svg>
