<svg width="33" height="28" viewBox="0 0 33 28" fill="none" xmlns="http://www.w3.org/2000/svg">
<g clip-path="url(#clip0_1210_52267)">
<path fill-rule="evenodd" clip-rule="evenodd" d="M13.5052 14.995L18.0982 10.402C18.1898 10.3085 18.299 10.2342 18.4195 10.1832C18.54 10.1322 18.6694 10.1056 18.8003 10.1049C18.9311 10.1043 19.0608 10.1296 19.1818 10.1793C19.3028 10.2291 19.4128 10.3024 19.5053 10.3949C19.5978 10.4874 19.6711 10.5974 19.7209 10.7184C19.7706 10.8394 19.7959 10.9691 19.7952 11.0999C19.7946 11.2308 19.768 11.3602 19.717 11.4807C19.666 11.6012 19.5916 11.7104 19.4982 11.802L15.5982 15.702L19.4982 19.602C19.6808 19.7883 19.7824 20.0391 19.7811 20.2999C19.7798 20.5607 19.6756 20.8105 19.4912 20.995C19.3067 21.1794 19.0569 21.2836 18.7961 21.2849C18.5353 21.2862 18.2845 21.1846 18.0982 21.002L13.5052 16.41C13.3177 16.2225 13.2124 15.9682 13.2124 15.703C13.2124 15.4378 13.3177 15.1835 13.5052 14.996V14.995Z" fill="#8993A5"/>
</g>
<defs>
<clipPath id="clip0_1210_52267">
<rect width="32" height="32" fill="white" transform="translate(0.5)"/>
</clipPath>
</defs>
</svg>
