<svg width="16" height="16" viewBox="0 0 16 16" fill="none" xmlns="http://www.w3.org/2000/svg">
<g clip-path="url(#clip0_49_18)">
<path d="M2.34399 13.6562C1.57991 12.9182 0.970454 12.0354 0.551182 11.0594C0.13191 10.0834 -0.0887798 9.03361 -0.0980103 7.97137C-0.107241 6.90914 0.0951727 5.8557 0.49742 4.87253C0.899667 3.88936 1.49369 2.99614 2.24483 2.245C2.99598 1.49386 3.88919 0.899835 4.87236 0.497588C5.85553 0.0953406 6.90897 -0.107073 7.9712 -0.0978425C9.03344 -0.0886119 10.0832 0.132078 11.0592 0.55135C12.0353 0.970622 12.918 1.58008 13.656 2.34416C15.1133 3.85298 15.9196 5.8738 15.9014 7.97137C15.8832 10.0689 15.0418 12.0754 13.5585 13.5587C12.0753 15.042 10.0688 15.8833 7.9712 15.9016C5.87363 15.9198 3.85281 15.1134 2.34399 13.6562ZM9.11999 8.00016L11.384 5.73616L10.256 4.60816L7.99999 6.87216L5.73599 4.60816L4.60799 5.73616L6.87199 8.00016L4.60799 10.2642L5.73599 11.3922L7.99999 9.12816L10.264 11.3922L11.392 10.2642L9.12799 8.00016H9.11999Z" fill="#CA3521"/>
</g>
<defs>
<clipPath id="clip0_49_18">
<rect width="16" height="16" fill="white"/>
</clipPath>
</defs>
</svg>
