<svg width="160" height="137" viewBox="0 0 160 137" fill="none" xmlns="http://www.w3.org/2000/svg">
<g clip-path="url(#clip0_661_27456)">
<rect width="160" height="136.01" fill="white" fill-opacity="0.01"/>
<path d="M111.696 39.5324H14.3164V136.042H111.696V39.5324Z" fill="#CFD4DB"/>
<path d="M111.761 39.5324H41.4023V107.382H111.761V39.5324Z" fill="url(#paint0_linear_661_27456)"/>
<path d="M54.7515 71.9065H31.6641V73.1963H54.7515V71.9065Z" fill="white"/>
<path d="M54.7515 64.2321H31.6641V65.5219H54.7515V64.2321Z" fill="white"/>
<path d="M44.1751 56.5578H31.6641V57.8476H44.1751V56.5578Z" fill="white"/>
<path d="M27.4079 56.5578H24.5703V57.8476H27.4079V56.5578Z" fill="white"/>
<path d="M27.4079 64.2321H24.5703V65.5219H27.4079V64.2321Z" fill="white"/>
<path d="M27.4079 71.9065H24.5703V73.1963H27.4079V71.9065Z" fill="white"/>
<path d="M27.4079 79.5163H24.5703V80.8061H27.4079V79.5163Z" fill="white"/>
<path d="M27.4079 87.1906H24.5703V88.4804H27.4079V87.1906Z" fill="white"/>
<path d="M27.4079 94.8005H24.5703V96.0903H27.4079V94.8005Z" fill="white"/>
<path d="M27.4079 102.475H24.5703V103.765H27.4079V102.475Z" fill="white"/>
<path d="M27.4079 110.149H24.5703V111.439H27.4079V110.149Z" fill="white"/>
<path d="M27.4079 117.759H24.5703V119.049H27.4079V117.759Z" fill="white"/>
<path d="M98.9269 94.8005H59.5879V96.0903H98.9269V94.8005Z" fill="white"/>
<path d="M55.203 94.8005H31.6641V96.0903H55.203V94.8005Z" fill="white"/>
<path d="M102.668 102.475H69.1973V103.765H102.668V102.475Z" fill="white"/>
<path d="M64.8771 102.475H44.1758V103.765H64.8771V102.475Z" fill="white"/>
<path d="M89.7058 110.149H44.1758V111.439H89.7058V110.149Z" fill="white"/>
<path d="M75.5167 117.759H56.6855V119.049H75.5167V117.759Z" fill="white"/>
<path d="M67.778 79.5163H46.1738V80.8061H67.778V79.5163Z" fill="white"/>
<path d="M67.778 87.1906H46.1738V88.4804H67.778V87.1906Z" fill="white"/>
<path d="M26.892 88.6739C22.4059 88.6664 18.0223 90.0152 14.3164 92.5433V99.7017C16.5687 97.2131 19.5087 95.4486 22.7642 94.6317C26.0198 93.8148 29.4446 93.9823 32.6049 95.1128C35.7653 96.2434 38.5192 98.2862 40.5179 100.983C42.5166 103.679 43.6704 106.908 43.833 110.261C43.9957 113.613 43.1599 116.939 41.4316 119.816C39.7033 122.693 37.1602 124.993 34.1241 126.424C31.088 127.856 27.6956 128.354 24.3762 127.856C21.0568 127.358 17.9598 125.886 15.4772 123.628L14.3164 122.467V129.625C17.2155 131.573 20.5304 132.816 23.9959 133.254C27.4613 133.691 30.9811 133.311 34.2734 132.145C37.5658 130.978 40.5393 129.057 42.956 126.535C45.3727 124.013 47.1655 120.96 48.1909 117.621C49.2163 114.282 49.4458 110.749 48.861 107.306C48.2763 103.862 46.8935 100.603 44.8234 97.7895C42.7533 94.976 40.0534 92.6862 36.9397 91.1033C33.8259 89.5205 30.3849 88.6885 26.892 88.6739Z" fill="#CFD4DB"/>
<path d="M149.616 0H52.2363V96.5095H149.616V0Z" fill="url(#paint1_linear_661_27456)"/>
<path d="M92.6714 32.374H69.584V33.6638H92.6714V32.374Z" fill="#FFAB00"/>
<path d="M92.6714 24.6997H69.584V25.9895H92.6714V24.6997Z" fill="#0065FF"/>
<path d="M82.0951 17.0254H69.584V18.3152H82.0951V17.0254Z" fill="#E5E8EC"/>
<path d="M65.2633 17.0254H62.4258V18.3152H65.2633V17.0254Z" fill="#E5E8EC"/>
<path d="M65.2633 24.6997H62.4258V25.9895H65.2633V24.6997Z" fill="#E5E8EC"/>
<path d="M65.2633 32.374H62.4258V33.6638H65.2633V32.374Z" fill="#E5E8EC"/>
<path d="M65.2633 39.9839H62.4258V41.2737H65.2633V39.9839Z" fill="#E5E8EC"/>
<path d="M65.2633 47.6582H62.4258V48.948H65.2633V47.6582Z" fill="#E5E8EC"/>
<path d="M65.2633 55.268H62.4258V56.5578H65.2633V55.268Z" fill="#E5E8EC"/>
<path d="M65.2633 62.9424H62.4258V64.2322H65.2633V62.9424Z" fill="#E5E8EC"/>
<path d="M65.2633 70.6167H62.4258V71.9065H65.2633V70.6167Z" fill="#E5E8EC"/>
<path d="M65.2633 78.2265H62.4258V79.5163H65.2633V78.2265Z" fill="#E5E8EC"/>
<path d="M136.782 55.268H97.4434V56.5578H136.782V55.268Z" fill="#FFAB00"/>
<path d="M93.1229 55.268H69.584V56.5578H93.1229V55.268Z" fill="#E5E8EC"/>
<path d="M140.588 62.9424H107.117V64.2322H140.588V62.9424Z" fill="#FFAB00"/>
<path d="M102.733 62.9424H82.0312V64.2322H102.733V62.9424Z" fill="#0065FF"/>
<path d="M127.561 70.6167H82.0312V71.9065H127.561V70.6167Z" fill="#0065FF"/>
<path d="M113.372 78.2265H94.541V79.5163H113.372V78.2265Z" fill="#E5E8EC"/>
<path d="M105.698 39.9839H84.0938V41.2737H105.698V39.9839Z" fill="#E5E8EC"/>
<path d="M105.698 47.6582H84.0938V48.948H105.698V47.6582Z" fill="#E5E8EC"/>
<path opacity="0.5" d="M149.615 42.5635C146.758 39.1832 142.963 36.726 138.709 35.5028C134.456 34.2795 129.935 34.3451 125.719 35.6912C121.502 37.0373 117.78 39.6035 115.022 43.0653C112.264 46.5271 110.595 50.7289 110.225 55.1395C109.855 59.55 110.801 63.9712 112.944 67.8438C115.087 71.7165 118.33 74.8668 122.264 76.8962C126.197 78.9256 130.644 79.7431 135.042 79.2452C139.44 78.7474 143.591 76.9565 146.971 74.0991C147.916 73.2834 148.8 72.3997 149.615 71.4551V42.5635ZM132.526 73.9702C129.171 73.9702 125.892 72.9754 123.103 71.1117C120.313 69.2481 118.14 66.5991 116.856 63.4999C115.572 60.4007 115.236 56.9904 115.891 53.7004C116.545 50.4103 118.16 47.3881 120.532 45.0161C122.904 42.6441 125.927 41.0287 129.217 40.3743C132.507 39.7198 135.917 40.0557 139.016 41.3394C142.115 42.6232 144.764 44.7971 146.628 47.5863C148.492 50.3755 149.487 53.6547 149.487 57.0093C149.487 61.5076 147.7 65.8216 144.519 69.0024C141.338 72.1832 137.024 73.9702 132.526 73.9702Z" fill="#091E42"/>
<path d="M9.52356 120.586L-0.0527344 130.162L2.68335 132.898L12.2596 123.322L9.52356 120.586Z" fill="#0065FF"/>
<path d="M135.753 73.4542C146.617 73.4542 155.423 64.6479 155.423 53.7848C155.423 42.9216 146.617 34.1153 135.753 34.1153C124.89 34.1153 116.084 42.9216 116.084 53.7848C116.084 64.6479 124.89 73.4542 135.753 73.4542Z" fill="#344563"/>
<path d="M140.524 55.9774H115.244V59.8468H140.524V55.9774Z" fill="#FDC150"/>
<path d="M140.525 43.7888H117.824V47.6582H140.525V43.7888Z" fill="#FAFBFC"/>
<path opacity="0.5" d="M155.423 53.7848C155.423 53.0754 155.423 52.4305 155.358 51.7211C153.424 45.8482 149.25 40.9759 143.744 38.1624C138.238 35.3489 131.844 34.8216 125.951 36.6949C122.956 38.4164 120.467 40.8963 118.735 43.885C117.003 46.8737 116.089 50.2659 116.084 53.7203C116.749 51.4544 117.859 49.3435 119.348 47.5107C120.837 45.6779 122.676 44.1597 124.758 43.0446C126.84 41.9296 129.122 41.2399 131.473 41.0158C133.824 40.7918 136.196 41.0377 138.451 41.7395C140.706 42.4412 142.799 43.5846 144.607 45.1031C146.416 46.6216 147.904 48.4848 148.986 50.5842C150.067 52.6836 150.72 54.9772 150.906 57.3314C151.092 59.6856 150.808 62.0534 150.07 64.2967C149.448 66.2417 148.511 68.0716 147.297 69.7138C149.814 67.8896 151.862 65.4949 153.275 62.7261C154.687 59.9572 155.423 56.8931 155.423 53.7848Z" fill="#091E42"/>
<path d="M135.753 75.389C131.48 75.389 127.303 74.1219 123.75 71.748C120.197 69.3741 117.428 66 115.793 62.0523C114.158 58.1047 113.73 53.7608 114.564 49.57C115.397 45.3792 117.455 41.5297 120.476 38.5083C123.498 35.4869 127.347 33.4293 131.538 32.5957C135.729 31.7621 140.073 32.1899 144.02 33.8251C147.968 35.4603 151.342 38.2293 153.716 41.7821C156.09 45.3349 157.357 49.5119 157.357 53.7848C157.357 59.5145 155.081 65.0097 151.029 69.0612C146.978 73.1128 141.482 75.389 135.753 75.389ZM135.753 36.05C132.245 36.05 128.816 37.0901 125.9 39.0388C122.983 40.9875 120.71 43.7573 119.368 46.998C118.026 50.2386 117.674 53.8044 118.359 57.2446C119.043 60.6849 120.732 63.8449 123.212 66.3251C125.693 68.8054 128.853 70.4945 132.293 71.1788C135.733 71.8631 139.299 71.5119 142.539 70.1696C145.78 68.8273 148.55 66.5541 150.499 63.6377C152.447 60.7212 153.487 57.2924 153.487 53.7848C153.487 49.0812 151.619 44.5703 148.293 41.2444C144.967 37.9185 140.456 36.05 135.753 36.05Z" fill="#0065FF"/>
<path d="M25.023 127.368C35.8862 127.368 44.6925 118.562 44.6925 107.699C44.6925 96.8353 35.8862 88.029 25.023 88.029C14.1598 88.029 5.35352 96.8353 5.35352 107.699C5.35352 118.562 14.1598 127.368 25.023 127.368Z" fill="#E5E8EC"/>
<path d="M34.3093 116.018H22.8301V119.887H34.3093V116.018Z" fill="white"/>
<path d="M34.3093 103.894H22.8301V107.763H34.3093V103.894Z" fill="white"/>
<path d="M33.7934 91.7049H22.8301V95.5744H33.7934V91.7049Z" fill="white"/>
<path opacity="0.2" d="M27.9251 88.2225C22.3313 88.4083 16.9867 90.5811 12.8501 94.3513C8.7136 98.1215 6.05579 103.242 5.35352 108.795C5.57002 112.683 6.93583 116.42 9.27789 119.531C11.62 122.642 14.8329 124.988 18.5095 126.272C16.47 124.997 14.7099 123.323 13.3354 121.349C11.961 119.376 11.0008 117.144 10.5128 114.789C10.0247 112.434 10.019 110.005 10.4959 107.647C10.9728 105.29 11.9225 103.054 13.2876 101.074C14.6526 99.094 16.4048 97.4112 18.4383 96.1271C20.4718 94.8431 22.7444 93.9844 25.119 93.603C27.4935 93.2216 29.9207 93.3254 32.2541 93.9081C34.5874 94.4907 36.7784 95.5402 38.6949 96.9931C40.9294 98.505 42.7835 100.514 44.1121 102.862C43.1378 99.1078 41.0858 95.7211 38.2093 93.1197C35.3329 90.5183 31.7577 88.8159 27.9251 88.2225Z" fill="#091E42"/>
<path d="M25.0222 129.303C20.7493 129.303 16.5723 128.036 13.0195 125.662C9.46673 123.288 6.69767 119.914 5.0625 115.966C3.42733 112.018 2.99949 107.675 3.8331 103.484C4.6667 99.2929 6.7243 95.4434 9.7457 92.422C12.7671 89.4006 16.6166 87.343 20.8074 86.5094C24.9982 85.6758 29.3421 86.1037 33.2897 87.7388C37.2374 89.374 40.6115 92.1431 42.9854 95.6959C45.3593 99.2486 46.6264 103.426 46.6264 107.698C46.6264 113.428 44.3502 118.923 40.2986 122.975C36.2471 127.027 30.752 129.303 25.0222 129.303ZM25.0222 89.9637C21.5146 89.9637 18.0857 91.0038 15.1693 92.9526C12.2528 94.9013 9.97967 97.6711 8.63737 100.912C7.29506 104.152 6.94385 107.718 7.62815 111.158C8.31246 114.599 10.0015 117.759 12.4818 120.239C14.962 122.719 18.1221 124.408 21.5623 125.093C25.0025 125.777 28.5684 125.426 31.809 124.083C35.0496 122.741 37.8194 120.468 39.7681 117.551C41.7168 114.635 42.757 111.206 42.757 107.698C42.757 102.995 40.8885 98.484 37.5626 95.1581C34.2366 91.8322 29.7257 89.9637 25.0222 89.9637Z" fill="#0065FF"/>
<path d="M150.447 66.7551L147.711 69.4912L157.269 79.0492L160.005 76.3132L150.447 66.7551Z" fill="#0065FF"/>
</g>
<defs>
<linearGradient id="paint0_linear_661_27456" x1="76.5624" y1="107.382" x2="76.5624" y2="10.873" gradientUnits="userSpaceOnUse">
<stop stop-color="#E5E8EC" stop-opacity="0.1"/>
<stop offset="0.08" stop-color="#E1E4E9" stop-opacity="0.27"/>
<stop offset="0.18" stop-color="#DCE0E5" stop-opacity="0.46"/>
<stop offset="0.29" stop-color="#D8DCE2" stop-opacity="0.63"/>
<stop offset="0.4" stop-color="#D5D9DF" stop-opacity="0.76"/>
<stop offset="0.53" stop-color="#D2D7DD" stop-opacity="0.87"/>
<stop offset="0.66" stop-color="#D0D5DC" stop-opacity="0.94"/>
<stop offset="0.8" stop-color="#CFD4DB" stop-opacity="0.99"/>
<stop offset="1" stop-color="#CFD4DB"/>
</linearGradient>
<linearGradient id="paint1_linear_661_27456" x1="52.4362" y1="96.7287" x2="149.378" y2="-0.219268" gradientUnits="userSpaceOnUse">
<stop stop-color="#172B4D"/>
<stop offset="0.58" stop-color="#192D4E"/>
<stop offset="0.78" stop-color="#203354"/>
<stop offset="0.93" stop-color="#2B3D5C"/>
<stop offset="1" stop-color="#344563"/>
</linearGradient>
<clipPath id="clip0_661_27456">
<rect width="160" height="136.01" fill="white"/>
</clipPath>
</defs>
</svg>
