<svg width="32" height="32" viewBox="0 0 32 32" fill="none" xmlns="http://www.w3.org/2000/svg">
<rect width="24" height="24" transform="translate(4 4)" fill="white" fill-opacity="0.01"/>
<path fill-rule="evenodd" clip-rule="evenodd" d="M15.701 20.7C15.0382 20.7094 14.3802 20.5869 13.7652 20.3398C13.1502 20.0926 12.5904 19.7257 12.1184 19.2604C11.6464 18.795 11.2716 18.2405 11.0158 17.629C10.76 17.0175 10.6283 16.3613 10.6283 15.6985C10.6283 15.0357 10.76 14.3795 11.0158 13.768C11.2716 13.1565 11.6464 12.602 12.1184 12.1366C12.5904 11.6713 13.1502 11.3044 13.7652 11.0572C14.3802 10.8101 15.0382 10.6876 15.701 10.697C17.0276 10.697 18.2999 11.224 19.2379 12.162C20.176 13.1001 20.703 14.3724 20.703 15.699C20.703 17.0256 20.176 18.2979 19.2379 19.2359C18.2999 20.174 17.0276 20.701 15.701 20.701V20.7ZM24.069 17.584C23.6764 17.4489 23.3357 17.1947 23.0944 16.8568C22.8531 16.5189 22.7233 16.1142 22.723 15.699C22.723 14.823 23.286 14.086 24.068 13.814C24.1834 13.776 24.2801 13.6956 24.3385 13.589C24.397 13.4825 24.4129 13.3578 24.383 13.24C24.1859 12.5443 23.9052 11.8751 23.547 11.247C23.4879 11.1475 23.3947 11.0728 23.2847 11.037C23.1747 11.0011 23.0553 11.0064 22.949 11.052C22.539 11.2178 22.0863 11.2458 21.659 11.132C21.3235 11.0423 21.0174 10.8664 20.771 10.6216C20.5247 10.3769 20.3468 10.0719 20.255 9.73699C20.1383 9.30793 20.165 8.85249 20.331 8.43999C20.376 8.3336 20.3809 8.21451 20.3449 8.10476C20.3088 7.99501 20.2343 7.90202 20.135 7.84299C19.5119 7.48989 18.8489 7.21259 18.16 7.01699C18.0423 6.98679 17.9176 7.00243 17.811 7.06072C17.7044 7.11902 17.624 7.21563 17.586 7.33099C17.4509 7.7236 17.1967 8.06429 16.8588 8.30557C16.5209 8.54684 16.1162 8.67668 15.701 8.67699C15.286 8.67669 14.8815 8.54696 14.5438 8.30587C14.2061 8.06477 13.952 7.72434 13.817 7.33199C13.7785 7.21664 13.6979 7.12009 13.5913 7.06167C13.4847 7.00325 13.3599 6.98729 13.242 7.01699C12.534 7.21699 11.863 7.50199 11.238 7.85899C11.1406 7.91606 11.067 8.00627 11.0306 8.11313C10.9943 8.21999 10.9976 8.33637 11.04 8.44099C11.1892 8.8048 11.2281 9.20452 11.1516 9.59025C11.0751 9.97599 10.8867 10.3307 10.6099 10.61C10.3332 10.8893 9.98024 11.081 9.59522 11.161C9.21021 11.241 8.81015 11.2059 8.44498 11.06C8.33882 11.0156 8.2202 11.0109 8.1109 11.0469C8.00159 11.0829 7.90895 11.1572 7.84998 11.256C7.49276 11.8846 7.21305 12.5541 7.01698 13.25C6.98729 13.3666 7.00247 13.4901 7.05951 13.596C7.11655 13.702 7.21129 13.7826 7.32498 13.822C7.712 13.9604 8.04681 14.2151 8.28363 14.551C8.52044 14.887 8.64769 15.2879 8.64798 15.699C8.64798 16.566 8.09598 17.298 7.32398 17.576C7.21059 17.6152 7.11602 17.6955 7.05899 17.801C7.00196 17.9066 6.98661 18.0297 7.01598 18.146C7.19203 18.7669 7.43443 19.367 7.73898 19.936C7.79876 20.0417 7.8966 20.1206 8.01254 20.1566C8.12849 20.1927 8.25381 20.1831 8.36298 20.13C8.95798 19.857 9.70598 19.866 10.467 20.368C10.584 20.445 10.692 20.553 10.769 20.668C11.296 21.468 11.281 22.248 10.967 22.856C10.9094 22.9623 10.8948 23.0866 10.926 23.2034C10.9572 23.3202 11.032 23.4206 11.135 23.484C11.7969 23.8723 12.5061 24.1737 13.245 24.381C13.362 24.4113 13.4862 24.3958 13.5921 24.3377C13.6981 24.2795 13.7778 24.183 13.815 24.068C13.9489 23.6739 14.2028 23.3316 14.541 23.089C14.8792 22.8464 15.2848 22.7156 15.701 22.715C16.579 22.715 17.319 23.282 17.588 24.068C17.6254 24.1829 17.7051 24.2792 17.811 24.3373C17.9169 24.3955 18.041 24.4111 18.158 24.381C18.8872 24.1759 19.5874 23.8792 20.242 23.498C20.3455 23.4344 20.4207 23.3334 20.4518 23.2159C20.4829 23.0984 20.4675 22.9735 20.409 22.867C20.091 22.259 20.072 21.474 20.6 20.672C20.677 20.556 20.785 20.447 20.902 20.37C21.674 19.859 22.429 19.857 23.027 20.14C23.1361 20.1947 23.262 20.2055 23.3788 20.1701C23.4957 20.1348 23.5945 20.056 23.655 19.95C23.9619 19.3805 24.206 18.7793 24.383 18.157C24.4131 18.0395 24.3975 17.9149 24.3392 17.8085C24.2809 17.7021 24.1843 17.6218 24.069 17.584Z" fill="white"/>
</svg>
