<svg width="24" height="25" viewBox="0 0 24 25" fill="none" xmlns="http://www.w3.org/2000/svg">
<path fill-rule="evenodd" clip-rule="evenodd" d="M12.7657 4.48282C13.0087 4.58349 13.2295 4.73105 13.4154 4.91707L19.5834 11.0841C19.7695 11.27 19.9172 11.4908 20.018 11.7339C20.1188 11.9769 20.1706 12.2375 20.1706 12.5006C20.1706 12.7637 20.1188 13.0242 20.018 13.2673C19.9172 13.5103 19.7695 13.7311 19.5834 13.9171L13.4154 20.0841C13.2295 20.2701 13.0087 20.4176 12.7657 20.5183C12.5228 20.619 12.2624 20.6708 11.9994 20.6708C11.7364 20.6708 11.476 20.619 11.233 20.5183C10.99 20.4176 10.7693 20.2701 10.5834 20.0841L4.41537 13.9171C4.22921 13.7311 4.08152 13.5103 3.98075 13.2673C3.87999 13.0242 3.82812 12.7637 3.82812 12.5006C3.82812 12.2375 3.87999 11.9769 3.98075 11.7339C4.08152 11.4908 4.22921 11.27 4.41537 11.0841L10.5834 4.91707C10.7693 4.73105 10.99 4.58349 11.233 4.48282C11.476 4.38214 11.7364 4.33032 11.9994 4.33032C12.2624 4.33032 12.5228 4.38214 12.7657 4.48282ZM11.2923 14.2072C11.4798 14.3947 11.7342 14.5001 11.9994 14.5001C12.2646 14.5001 12.5189 14.3947 12.7065 14.2072C12.894 14.0196 12.9994 13.7653 12.9994 13.5001V8.50006C12.9994 8.23484 12.894 7.98049 12.7065 7.79295C12.5189 7.60542 12.2646 7.50006 11.9994 7.50006C11.7342 7.50006 11.4798 7.60542 11.2923 7.79295C11.1047 7.98049 10.9994 8.23484 10.9994 8.50006V13.5001C10.9994 13.7653 11.1047 14.0196 11.2923 14.2072ZM11.2923 17.2072C11.4798 17.3947 11.7342 17.5001 11.9994 17.5001C12.2646 17.5001 12.5189 17.3947 12.7065 17.2072C12.894 17.0196 12.9994 16.7653 12.9994 16.5001C12.9994 16.2348 12.894 15.9805 12.7065 15.793C12.5189 15.6054 12.2646 15.5001 11.9994 15.5001C11.7342 15.5001 11.4798 15.6054 11.2923 15.793C11.1047 15.9805 10.9994 16.2348 10.9994 16.5001C10.9994 16.7653 11.1047 17.0196 11.2923 17.2072Z" fill="white"/>
</svg>
