<svg width="24" height="25" viewBox="0 0 24 25" fill="none" xmlns="http://www.w3.org/2000/svg">
<path fill-rule="evenodd" clip-rule="evenodd" d="M12 20.5C9.87827 20.5 7.84344 19.6571 6.34315 18.1569C4.84285 16.6566 4 14.6217 4 12.5C4 10.3783 4.84285 8.34344 6.34315 6.84315C7.84344 5.34285 9.87827 4.5 12 4.5C14.1217 4.5 16.1566 5.34285 17.6569 6.84315C19.1571 8.34344 20 10.3783 20 12.5C20 14.6217 19.1571 16.6566 17.6569 18.1569C16.1566 19.6571 14.1217 20.5 12 20.5ZM13.364 9.536L11.212 13.646L9.669 12.256C9.57136 12.1681 9.45738 12.1004 9.33355 12.0566C9.20972 12.0128 9.07848 11.9938 8.94732 12.0007C8.81616 12.0076 8.68764 12.0403 8.56911 12.0969C8.45058 12.1535 8.34435 12.2329 8.2565 12.3305C8.16865 12.4281 8.10088 12.5421 8.05708 12.6659C8.01328 12.7898 7.99429 12.921 8.00121 13.0522C8.00813 13.1833 8.04081 13.3119 8.0974 13.4304C8.15399 13.5489 8.23336 13.6551 8.331 13.743L10.831 15.993C10.9443 16.095 11.0794 16.1698 11.226 16.2116C11.3726 16.2534 11.5268 16.2611 11.6768 16.2342C11.8268 16.2073 11.9687 16.1464 12.0917 16.0563C12.2146 15.9661 12.3153 15.849 12.386 15.714L15.136 10.464C15.2591 10.229 15.2837 9.95478 15.2046 9.7016C15.1255 9.44843 14.949 9.23706 14.714 9.114C14.479 8.99094 14.2048 8.96627 13.9516 9.04541C13.6984 9.12455 13.4871 9.30102 13.364 9.536Z" fill="white"/>
</svg>
