<svg width="33" height="33" viewBox="0 0 33 33" fill="none" xmlns="http://www.w3.org/2000/svg">
<path fill-rule="evenodd" clip-rule="evenodd" d="M0.0469225 1.6308C0.0727764 2.52774 0.08248 9.95276 0.0685893 18.1308L0.0433336 33L16.4545 32.9868L32.8657 32.9736L32.8679 28.3184C32.8706 22.503 32.9212 11.734 32.9768 5.11782C33 2.34934 33.007 0.0836136 32.9923 0.082744C32.9775 0.0818744 25.5482 0.0629443 16.4827 0.0406028L0 0L0.0469225 1.6308ZM0.299081 0.276995C0.299081 0.312046 0.3365 0.353251 0.382159 0.368569C0.447692 0.390576 0.463643 1.43267 0.457727 5.30732C0.439849 16.9983 0.34946 32.6288 0.299613 32.6598C0.269705 32.6784 7.4991 32.6871 16.3649 32.6792C25.2306 32.6713 32.4938 32.6554 32.5052 32.6439C32.5416 32.6073 32.5675 0.497668 32.5311 0.461079C32.512 0.441747 25.3125 0.410777 16.5323 0.392181C5.2522 0.368301 0.528842 0.33713 0.433668 0.285892C0.354644 0.243282 0.299081 0.23967 0.299081 0.276995ZM13.3193 6.10065C9.71542 6.13195 9.00574 6.15342 8.89953 6.23476C8.53126 6.51677 8.32742 6.76889 8.20799 7.09016C8.0863 7.41746 8.0752 7.61184 8.0752 9.4181V11.3888H7.4565C6.80942 11.3888 6.72268 11.4197 6.52303 11.7215C6.42905 11.8635 6.41363 12.1134 6.41377 13.4941C6.41383 14.8902 6.42912 15.132 6.53008 15.3354L6.64625 15.5695L7.36072 15.5885L8.0752 15.6075V19.7212C8.0752 24.2821 8.06642 24.1841 8.49424 24.3885L8.73025 24.5012L8.75165 25.487C8.77272 26.4586 8.77584 26.4764 8.96706 26.728C9.32396 27.1976 9.56575 27.2754 10.6672 27.2754C11.5469 27.2754 11.6589 27.2616 11.951 27.1168C12.152 27.0172 12.3374 26.8573 12.4493 26.6872C12.6189 26.4292 12.6287 26.3682 12.6515 25.4243L12.6756 24.4326H17.1213H21.5671L21.5675 25.252C21.5679 26.2051 21.6308 26.489 21.9129 26.8124C22.2625 27.2131 22.3731 27.242 23.561 27.242C24.7372 27.242 24.8378 27.2166 25.197 26.8296C25.4939 26.5098 25.5548 26.2555 25.5548 25.3369C25.5548 24.5281 25.5561 24.5214 25.7274 24.4291C25.8223 24.378 25.9719 24.2501 26.0598 24.1451L26.2195 23.9541V19.8119V15.6699H26.8209C27.4924 15.6699 27.7419 15.5827 27.8681 15.3038C27.9902 15.0343 27.9775 12.0589 27.8531 11.7592C27.7351 11.4749 27.47 11.3897 26.7013 11.3892L26.153 11.3888V9.31308C26.153 7.58776 26.1356 7.19532 26.0498 6.98862C25.9286 6.69658 25.6801 6.42032 25.3554 6.21684C25.1238 6.07162 25.1075 6.07101 21.3677 6.0672C19.3024 6.06513 15.6806 6.08018 13.3193 6.10065ZM9.71463 9.22605C9.69024 9.25054 9.6703 10.9362 9.6703 12.9719V16.6732H17.1473H24.6244V12.9273V9.18144H17.1917C13.1036 9.18144 9.73895 9.20151 9.71463 9.22605ZM10.4678 12.9273V15.8036H17.1141H23.7603V12.9273V10.051H17.1141H10.4678V12.9273ZM11.7512 17.5853C11.7282 17.6455 11.7399 17.7433 11.7772 17.8027C11.8385 17.9006 12.3402 17.9107 17.1546 17.9107H22.4643L22.4851 17.6933L22.506 17.4759H17.1495C12.2516 17.4759 11.7893 17.4853 11.7512 17.5853ZM9.70825 19.6546C9.6251 19.7384 9.60383 19.921 9.60383 20.5522C9.60383 20.988 9.62198 21.3922 9.64418 21.4504C9.67927 21.5425 9.87493 21.5561 11.1562 21.5552C11.9656 21.5546 12.6699 21.5273 12.7214 21.4946C12.8422 21.4176 12.843 19.7898 12.7223 19.6435C12.6011 19.4965 9.85533 19.5066 9.70825 19.6546ZM21.5969 19.6441C21.4798 19.7303 21.47 19.8128 21.4872 20.5639C21.513 21.6877 21.4143 21.6231 23.1061 21.6231C24.4242 21.6231 24.4319 21.6223 24.5941 21.4589C24.7473 21.3049 24.7573 21.2503 24.7573 20.5708C24.7573 19.4852 24.8592 19.5495 23.1379 19.5495C22.0252 19.5495 21.6982 19.5696 21.5969 19.6441ZM9.68359 22.6399C9.63972 22.684 9.60383 22.8595 9.60383 23.0299C9.60383 23.4731 9.70599 23.5125 10.7841 23.4849C11.2623 23.4727 11.6733 23.4426 11.6977 23.418C11.7847 23.3301 11.8106 22.8437 11.7358 22.703C11.6632 22.5667 11.6127 22.5596 10.7114 22.5596C10.0626 22.5596 9.73815 22.585 9.68359 22.6399ZM22.477 22.6026C22.3913 22.6889 22.4306 23.198 22.5346 23.3474C22.633 23.4889 22.6827 23.4961 23.5566 23.4961C24.6231 23.4961 24.6419 23.4863 24.6114 22.9496L24.5911 22.5931L23.557 22.5747C22.9883 22.5646 22.5023 22.5771 22.477 22.6026ZM15.2531 23.1462C14.9686 23.2342 14.8902 23.7328 15.124 23.9681C15.2566 24.1016 15.3178 24.1051 17.157 24.0852L19.0534 24.0647L19.1804 23.9067C19.2502 23.8199 19.3074 23.6665 19.3074 23.5659C19.3074 23.1933 19.2438 23.1806 17.2138 23.1465C16.1903 23.1294 15.308 23.1293 15.2531 23.1462Z" fill="#E4740C"/>
</svg>
