<svg width="18" height="17" viewBox="0 0 18 17" fill="none" xmlns="http://www.w3.org/2000/svg">
<path fill-rule="evenodd" clip-rule="evenodd" d="M8.06061 0.966986C8.57661 -0.00701386 9.41861 -0.0110139 9.93661 0.966986L17.0606 14.425C17.5766 15.399 17.1056 16.196 16.0036 16.196H1.99361C0.891608 16.196 0.418608 15.403 0.936608 14.425L8.06061 0.966986ZM8.2915 10.7071C8.47904 10.8946 8.73339 11 8.99861 11C9.26382 11 9.51818 10.8946 9.70571 10.7071C9.89325 10.5196 9.99861 10.2652 9.99861 9.99998V4.99998C9.99861 4.73477 9.89325 4.48041 9.70571 4.29288C9.51818 4.10534 9.26382 3.99998 8.99861 3.99998C8.73339 3.99998 8.47904 4.10534 8.2915 4.29288C8.10396 4.48041 7.99861 4.73477 7.99861 4.99998V9.99998C7.99861 10.2652 8.10396 10.5196 8.2915 10.7071ZM8.2915 13.7071C8.47904 13.8946 8.73339 14 8.99861 14C9.26382 14 9.51818 13.8946 9.70571 13.7071C9.89325 13.5196 9.99861 13.2652 9.99861 13C9.99861 12.7348 9.89325 12.4804 9.70571 12.2929C9.51818 12.1053 9.26382 12 8.99861 12C8.73339 12 8.47904 12.1053 8.2915 12.2929C8.10396 12.4804 7.99861 12.7348 7.99861 13C7.99861 13.2652 8.10396 13.5196 8.2915 13.7071Z" fill="#BF2600"/>
</svg>
